<mxfile host="app.diagrams.net" modified="2024-06-19T06:13:49.403Z" agent="Mozilla/5.0 (Macintosh; Intel Mac OS X 10_15_7) AppleWebKit/605.1.15 (KHTML, like Gecko) Version/17.4.1 Safari/605.1.15" version="24.5.5" etag="1i0N_oXjy87ae5j9wLC7" type="github">
  <diagram name="第 1 页" id="3S-PlJNpBKQQZbo95HMc">
    <mxGraphModel>
      <root>
        <mxCell id="0" />
        <mxCell id="1" parent="0" />
      </root>
    </mxGraphModel>
  </diagram>
</mxfile>
